
        <svg xmlns="http://www.w3.org/2000/svg" xmlns:xlink="http://www.w3.org/1999/xlink" version="1.1" width="3259.0521324596534" 
        height="3296.277466587241" viewBox="0 0 3259.0521324596534 3296.277466587241">
			<rect fill="#ffffff" width="3259.0521324596534" height="3296.277466587241"/>
			<g transform="scale(14.813873329362062) translate(10, 10)">
				<defs id="SvgjsDefs4019"></defs><g id="SvgjsG4020" featureKey="symbolFeature-0" transform="matrix(2.57339042598317,0,0,2.57339042598317,35.66563447281396,-2.57339042598317)" fill="#64d7d6"><g xmlns="http://www.w3.org/2000/svg"><path d="M26.9,27c0,0.8-0.5,1.5-1.1,1.7v2.7h-1.4v-2.7c-0.6-0.2-1.2-0.9-1.2-1.7c0-0.9,0.8-1.9,1.9-1.9   C26.1,25.1,26.9,26.1,26.9,27z"></path><path d="M28.3,20.5v2.4h-6.7v-2.4c0-1.9,1.6-3.3,3.3-3.3C26.7,17.2,28.3,18.6,28.3,20.5z"></path><path d="M25,7.5c-2.8,2.9-7.6,6.6-15.4,10.3c0.3,5.2,2.1,17.7,13.5,26.6c0.5,0.4,1.2,0.6,1.9,0.6c0.7,0,1.4-0.2,1.9-0.7   C38.2,35.5,40.1,23,40.4,17.8C32.6,14.1,27.8,10.3,25,7.5z M29.2,34.4h-8.4c-1.2,0-2.2-1-2.2-2.2v-7.7c0-0.9,0.7-1.5,1.5-1.5v-2.4   c0-2.7,2.2-4.9,4.9-4.9c2.7,0,4.9,2.2,4.9,4.9v2.4h0c0.8,0,1.5,0.7,1.5,1.5v7.7C31.4,33.4,30.4,34.4,29.2,34.4z"></path><path d="M44.4,15.2C28.3,8.1,25,1,25,1S21.7,8.1,5.6,15.2c0,0-1.4,19.5,15,32.3c2.5,2,6.2,2,8.7,0C45.8,34.7,44.4,15.2,44.4,15.2z    M28.1,45.9c-0.9,0.7-2,1.1-3.1,1.1c-1.1,0-2.3-0.4-3.1-1.1C8.7,35.6,7.6,20.8,7.6,16.5c10.1-4.6,15.1-9.2,17.4-12   c2.3,2.8,7.4,7.4,17.4,12C42.4,20.8,41.2,35.7,28.1,45.9z"></path><path d="M26.9,27c0,0.8-0.5,1.5-1.1,1.7v2.7h-1.4v-2.7c-0.6-0.2-1.2-0.9-1.2-1.7c0-0.9,0.8-1.9,1.9-1.9   C26.1,25.1,26.9,26.1,26.9,27z"></path><path d="M28.3,20.5v2.4h-6.7v-2.4c0-1.9,1.6-3.3,3.3-3.3C26.7,17.2,28.3,18.6,28.3,20.5z"></path><path d="M25,7.5c-2.8,2.9-7.6,6.6-15.4,10.3c0.3,5.2,2.1,17.7,13.5,26.6c0.5,0.4,1.2,0.6,1.9,0.6c0.7,0,1.4-0.2,1.9-0.7   C38.2,35.5,40.1,23,40.4,17.8C32.6,14.1,27.8,10.3,25,7.5z M29.2,34.4h-8.4c-1.2,0-2.2-1-2.2-2.2v-7.7c0-0.9,0.7-1.5,1.5-1.5v-2.4   c0-2.7,2.2-4.9,4.9-4.9c2.7,0,4.9,2.2,4.9,4.9v2.4h0c0.8,0,1.5,0.7,1.5,1.5v7.7C31.4,33.4,30.4,34.4,29.2,34.4z"></path><path d="M26.9,27c0,0.8-0.5,1.5-1.1,1.7v2.7h-1.4v-2.7c-0.6-0.2-1.2-0.9-1.2-1.7c0-0.9,0.8-1.9,1.9-1.9   C26.1,25.1,26.9,26.1,26.9,27z"></path><path d="M28.3,20.5v2.4h-6.7v-2.4c0-1.9,1.6-3.3,3.3-3.3C26.7,17.2,28.3,18.6,28.3,20.5z"></path><path d="M25,7.5c-2.8,2.9-7.6,6.6-15.4,10.3c0.3,5.2,2.1,17.7,13.5,26.6c0.5,0.4,1.2,0.6,1.9,0.6c0.7,0,1.4-0.2,1.9-0.7   C38.2,35.5,40.1,23,40.4,17.8C32.6,14.1,27.8,10.3,25,7.5z M29.2,34.4h-8.4c-1.2,0-2.2-1-2.2-2.2v-7.7c0-0.9,0.7-1.5,1.5-1.5v-2.4   c0-2.7,2.2-4.9,4.9-4.9c2.7,0,4.9,2.2,4.9,4.9v2.4h0c0.8,0,1.5,0.7,1.5,1.5v7.7C31.4,33.4,30.4,34.4,29.2,34.4z"></path></g></g><g id="SvgjsG4021" featureKey="fiAKjI-0" transform="matrix(2.894356069702415,0,0,2.894356069702415,-0.34732239713152424,125.76556172936627)" fill="#111111"><path d="M8.54 14.9 l-1.78 -5.36 l-1.78 5.36 l3.56 0 z M10.24 20 l-0.78 -2.36 l-5.38 0 l-0.78 2.36 l-3.18 0 l4.84 -13.7 l3.8 0 l4.82 13.7 l-3.34 0 z M20.400000000000002 20.24 c-3.84 0 -5.94 -2.28 -5.94 -5.68 l0 -8.26 l3.1 0 l0 7.84 c0 2.08 1.02 3.22 2.82 3.22 c1.78 0 2.78 -1.14 2.78 -3.22 l0 -7.84 l3.1 0 l0 8.26 c0 3.4 -2.08 5.68 -5.86 5.68 z M34.5 20 l-3.1 0 l0 -10.86 l-4.08 0 l0 -2.84 l11.26 0 l0 2.84 l-4.08 0 l0 10.86 z M48.620000000000005 20 l0 -5.36 l-5.8 0 l0 5.36 l-3.1 0 l0 -13.7 l3.1 0 l0 5.5 l5.8 0 l0 -5.5 l3.1 0 l0 13.7 l-3.1 0 z M65.84 20 l-5.52 -8.68 l0 8.68 l-2.98 0 l0 -13.7 l3.38 0 l5.52 8.7 l0 -8.7 l2.98 0 l0 13.7 l-3.38 0 z"></path></g><g id="SvgjsG4022" featureKey="sloganFeature-0" transform="matrix(0.5911714867282741,0,0,0.5911714867282741,19.077772796423528,190.571205264219)" fill="#64d7d6"><path d="M1.56 14.46 l0 -8.46 l1.8 0 l0 8.32 c0 2.7 1.56 4.08 3.76 4.08 s3.78 -1.38 3.78 -4.08 l0 -8.32 l1.78 0 l0 8.46 c0 3.64 -2.08 5.74 -5.56 5.74 c-3.46 0 -5.56 -2.1 -5.56 -5.74 z M28.897000000000002 6 l1.8 0 l0 14.2 l-0.22 0 l-9.4 -9.98 l0 9.78 l-1.78 0 l0 -14.2 l0.2 0 l9.4 9.98 l0 -9.78 z M39.234 18.28 l5.92 0 l-0.12 1.72 l-7.6 0 l0 -14 l1.8 0 l0 12.28 z M57.311 20.2 c-4 0 -7.18 -3.2 -7.18 -7.2 s3.18 -7.2 7.18 -7.2 s7.18 3.2 7.18 7.2 s-3.18 7.2 -7.18 7.2 z M57.311 18.48 c3.04 0 5.32 -2.38 5.32 -5.48 s-2.28 -5.48 -5.32 -5.48 c-3.06 0 -5.34 2.38 -5.34 5.48 s2.28 5.48 5.34 5.48 z M70.128 13 c0 -4.04 3.18 -7.2 7.18 -7.2 c1.68 0 3.28 0.56 4.7 1.64 l-0.9 1.4 c-1.18 -0.9 -2.4 -1.34 -3.8 -1.34 c-3.02 0 -5.38 2.42 -5.38 5.5 s2.38 5.5 5.38 5.5 c1.52 0 2.82 -0.48 3.8 -1.42 l0.92 1.38 c-1.22 1.1 -2.94 1.74 -4.72 1.74 c-4 0 -7.18 -3.18 -7.18 -7.2 z M96.16499999999999 20 l-4.14 -6.38 l-2.24 2.78 l0 3.6 l-1.8 0 l0 -14 l1.8 0 l0 7.62 l6.22 -7.62 l2.18 0 l-4.94 6.12 l5.02 7.88 l-2.1 0 z M103.982 20 l0 -14 l1.8 0 l0 14 l-1.8 0 z M122.11899999999999 6 l1.8 0 l0 14.2 l-0.22 0 l-9.4 -9.98 l0 9.78 l-1.78 0 l0 -14.2 l0.2 0 l9.4 9.98 l0 -9.78 z M142.256 11.88 l0 6.86 c-1.08 0.82 -2.56 1.46 -4.9 1.46 c-4.4 0 -7.26 -3.2 -7.26 -7.2 s3.02 -7.2 7.22 -7.2 c1.94 0 3.54 0.7 4.8 1.7 l-0.94 1.36 c-1.1 -0.88 -2.46 -1.34 -3.86 -1.34 c-3 0 -5.34 2.28 -5.34 5.48 s2.16 5.46 5.38 5.46 c1.22 0 2.26 -0.26 3.1 -0.66 l0 -4.18 l-2.7 0 l0.12 -1.74 l4.38 0 z M158.20999999999998 18.54 c0.88 0.82 2.7 1.66 4.52 1.66 c2.8 0 4.58 -1.44 4.58 -3.7 c0 -1.84 -0.88 -2.92 -3.92 -4.64 c-2.32 -1.34 -2.88 -1.78 -2.88 -2.66 c0 -0.94 0.88 -1.68 2.36 -1.68 c0.86 0 2 0.38 2.66 0.8 l0.96 -1.44 c-0.94 -0.62 -2.42 -1.08 -3.6 -1.08 c-2.58 0 -4.3 1.48 -4.3 3.42 c0 1.72 0.86 2.58 3.5 4.02 c2.34 1.28 3.3 2.22 3.3 3.24 c0 1.2 -1.04 1.92 -2.66 1.92 c-1.4 0 -2.8 -0.66 -3.5 -1.3 z M181.66699999999997 18.28 l0.12 1.72 l-8.52 0 l0 -14 l8.12 0 l0.14 1.72 l-6.46 0 l0 3.42 l4.38 0 l0 1.72 l-4.38 0 l0 5.42 l6.6 0 z M187.18399999999997 13 c0 -4.04 3.18 -7.2 7.18 -7.2 c1.68 0 3.28 0.56 4.7 1.64 l-0.9 1.4 c-1.18 -0.9 -2.4 -1.34 -3.8 -1.34 c-3.02 0 -5.38 2.42 -5.38 5.5 s2.38 5.5 5.38 5.5 c1.52 0 2.82 -0.48 3.8 -1.42 l0.92 1.38 c-1.22 1.1 -2.94 1.74 -4.72 1.74 c-4 0 -7.18 -3.18 -7.18 -7.2 z M204.90099999999998 14.46 l0 -8.46 l1.8 0 l0 8.32 c0 2.7 1.56 4.08 3.76 4.08 s3.78 -1.38 3.78 -4.08 l0 -8.32 l1.78 0 l0 8.46 c0 3.64 -2.08 5.74 -5.56 5.74 c-3.46 0 -5.56 -2.1 -5.56 -5.74 z M232.81799999999998 11.06 c0 2.26 -1.06 4.2 -3.24 4.84 l3.02 4.1 l-2.16 0 l-2.86 -3.88 l-3.14 0 l0 3.88 l-1.8 0 l0 -14 l5.28 0 c3.3 0 4.9 2.28 4.9 5.06 z M224.438 7.68 l0 6.74 l3.4 0 c2.26 0 3.18 -1.66 3.18 -3.36 s-0.92 -3.38 -3.18 -3.38 l-3.4 0 z M238.95499999999998 20 l0 -14 l1.8 0 l0 14 l-1.8 0 z M256.232 7.720000000000001 l-4.08 0 l0 12.28 l-1.8 0 l0 -12.28 l-4.1 0 l0.12 -1.72 l9.74 0 z M272.209 6 l-4.94 7.78 l0 6.22 l-1.8 0 l0 -6.2 l-4.96 -7.8 l2.04 0 l3.82 6.02 l3.8 -6.02 l2.04 0 z"></path></g>
			</g>
		</svg>
	